<svg width="16" height="16" viewBox="0 0 16 16" fill="none" xmlns="http://www.w3.org/2000/svg">
<g clip-path="url(#clip0_1_50)">
<path d="M1.15902 2.50685L2.13024 3.47807L2.11392 3.50255C1.86091 3.81269 1.73033 4.25341 1.73033 4.80839V9.98278C1.73033 10.6112 1.89356 11.0846 2.19553 11.4029C2.50567 11.7212 2.97904 11.8763 3.61564 11.8763H4.54605C4.73376 11.8763 4.87251 11.9171 4.96228 11.9987C5.0439 12.0803 5.09287 12.2272 5.09287 12.4312V14.3655L7.23934 12.2435C7.38625 12.0885 7.52499 11.9987 7.64742 11.9497C7.76984 11.9007 7.93307 11.8763 8.13711 11.8763H10.5366L11.8751 13.2147H8.21056L5.89269 15.2633C5.66417 15.4673 5.4683 15.6142 5.29691 15.7122C5.13368 15.8101 4.95412 15.8591 4.76641 15.8591C4.48892 15.8591 4.27672 15.7774 4.12981 15.5979C3.96831 15.3945 3.887 15.139 3.90129 14.8797V13.2147H3.53402C2.8811 13.2147 2.31796 13.0842 1.85275 12.8311C1.39247 12.5862 1.01695 12.2078 0.775434 11.7457C0.511465 11.2139 0.382526 10.6252 0.400005 10.0318V4.76759C0.400005 4.09834 0.522427 3.52704 0.775434 3.05367C0.881533 2.84963 1.00396 2.67008 1.15902 2.50685ZM1.2488 0.140015C1.40387 0.140015 1.52629 0.197145 1.64055 0.303245L15.2866 13.9329C15.3927 14.0472 15.4498 14.1778 15.4498 14.3247C15.4498 14.4716 15.3927 14.594 15.2866 14.7001C15.2386 14.7539 15.1793 14.7964 15.113 14.8246C15.0467 14.8528 14.975 14.8661 14.903 14.8634C14.8313 14.8639 14.7602 14.8498 14.6942 14.8217C14.6282 14.7936 14.5687 14.7522 14.5194 14.7001L0.86521 1.07043C0.81253 1.01854 0.771465 0.956061 0.744733 0.88712C0.718001 0.81818 0.706211 0.744349 0.710142 0.670512C0.710142 0.523605 0.767272 0.401183 0.873372 0.303245C0.97131 0.197145 1.09373 0.140015 1.24064 0.140015H1.2488ZM12.3974 1.5846C13.0748 1.5846 13.6543 1.71518 14.1276 1.96819C14.601 2.21304 14.9601 2.5803 15.2131 3.05367C15.458 3.52704 15.5804 4.09834 15.5804 4.76759V10.0318C15.5804 10.701 15.458 11.2723 15.2131 11.7457C15.0989 11.9579 14.9683 12.1456 14.8051 12.317L13.8338 11.3376L13.8746 11.2968C14.1195 10.9866 14.2501 10.5459 14.2501 9.98278V4.80839C14.2501 4.18812 14.0868 3.71475 13.7849 3.39645C13.4747 3.07815 13.0014 2.92309 12.3566 2.92309H5.41933L4.07268 1.5846H12.3974ZM5.59072 7.55066C5.77038 7.55066 5.94268 7.62203 6.06972 7.74906C6.19675 7.8761 6.26812 8.0484 6.26812 8.22806C6.26812 8.40772 6.19675 8.58002 6.06972 8.70706C5.94268 8.8341 5.77038 8.90547 5.59072 8.90547H4.24407C4.06441 8.90547 3.89211 8.8341 3.76507 8.70706C3.63804 8.58002 3.56667 8.40772 3.56667 8.22806C3.56667 8.0484 3.63804 7.8761 3.76507 7.74906C3.89211 7.62203 4.06441 7.55066 4.24407 7.55066H5.59072ZM10.104 7.55066C10.4795 7.55066 10.7814 7.85263 10.7814 8.22806V8.28519L10.0469 7.55066H10.104ZM3.99107 5.34705L5.29691 6.64473H4.23591C4.07928 6.6429 3.92812 6.58684 3.80817 6.4861C3.68822 6.38536 3.60689 6.24617 3.57802 6.09221C3.54916 5.93825 3.57454 5.77905 3.64985 5.6417C3.72515 5.50434 3.84574 5.39734 3.99107 5.33889V5.34705ZM11.9077 5.29808C11.9967 5.29808 12.0848 5.3156 12.167 5.34965C12.2491 5.38369 12.3238 5.43359 12.3867 5.49649C12.4496 5.55939 12.4995 5.63407 12.5336 5.71626C12.5676 5.79844 12.5851 5.88653 12.5851 5.97549C12.5851 6.06445 12.5676 6.15253 12.5336 6.23472C12.4995 6.31691 12.4496 6.39158 12.3867 6.45448C12.3238 6.51739 12.2491 6.56728 12.167 6.60133C12.0848 6.63537 11.9967 6.65289 11.9077 6.65289H10.5529C10.464 6.65289 10.3759 6.63537 10.2937 6.60133C10.2115 6.56728 10.1368 6.51739 10.0739 6.45448C10.011 6.39158 9.96111 6.31691 9.92707 6.23472C9.89303 6.15253 9.87551 6.06445 9.87551 5.97549C9.87551 5.88653 9.89303 5.79844 9.92707 5.71626C9.96111 5.63407 10.011 5.55939 10.0739 5.49649C10.1368 5.43359 10.2115 5.38369 10.2937 5.34965C10.3759 5.3156 10.464 5.29808 10.5529 5.29808H11.9077ZM8.30034 5.29808C8.42347 5.29869 8.5441 5.33285 8.64927 5.39688C8.75444 5.46091 8.84017 5.5524 8.89724 5.6615C8.95431 5.77061 8.98056 5.89321 8.97318 6.01611C8.96579 6.13902 8.92504 6.25759 8.85532 6.35908L7.79432 5.29808H8.30034Z" fill="white"/>
</g>
<defs>
<clipPath id="clip0_1_50">
<rect width="16" height="16" fill="white"/>
</clipPath>
</defs>
</svg>
