<svg width="16" height="16" viewBox="0 0 16 16" fill="none" xmlns="http://www.w3.org/2000/svg">
<g clip-path="url(#clip0_1_52)">
<path d="M1.78454 1.99989L0.869408 1.08705C0.76619 0.985151 0.710491 0.844399 0.716025 0.699436C0.716025 0.545933 0.764506 0.42491 0.869408 0.327948C0.974431 0.223045 1.10363 0.166504 1.24896 0.166504H1.25702C1.40234 0.166504 1.53154 0.223045 1.63657 0.327948L2.94123 1.63105C3.13924 1.6035 3.33978 1.59243 3.54093 1.5982H12.2953C12.9681 1.5982 13.5355 1.72789 14.0056 1.9792C14.4838 2.22232 14.8405 2.5872 15.0837 3.05733C15.3269 3.52747 15.4566 4.0948 15.4566 4.75947V9.98774C15.4566 10.6525 15.335 11.2199 15.0837 11.69C14.8502 12.1415 14.5045 12.4883 14.0611 12.7377L15.1376 13.8128C15.2426 13.9259 15.299 14.0551 15.299 14.2004C15.299 14.3458 15.2426 14.4669 15.1376 14.5718C15.0434 14.6773 14.9075 14.7364 14.7661 14.7334C14.6228 14.7346 14.4852 14.676 14.3866 14.5718L12.9193 13.1081C12.7224 13.1353 12.5144 13.1491 12.2953 13.1491H8.13702L5.83494 15.1836C5.60793 15.3862 5.40535 15.5322 5.24318 15.6295C5.08102 15.7267 4.90273 15.7754 4.70821 15.7754C4.47181 15.7873 4.24228 15.6919 4.08409 15.516C3.92372 15.3141 3.84288 15.0601 3.85708 14.8027V13.1491H3.49233C2.8439 13.1491 2.28451 13.0194 1.82255 12.7681C1.36577 12.5244 0.992837 12.1486 0.752596 11.69C0.490341 11.1619 0.362341 10.5772 0.379664 9.98774V4.75947C0.379664 4.0948 0.501288 3.52747 0.744416 3.05733C0.981047 2.59983 1.33269 2.24987 1.78454 1.99989ZM2.81323 3.02605C2.54809 3.10461 2.3313 3.22936 2.163 3.39778C1.85491 3.72199 1.70093 4.18395 1.70093 4.80001V9.93914C1.70093 10.5633 1.86309 11.0334 2.163 11.3495C2.47097 11.6657 2.94111 11.8197 3.57341 11.8197H4.49744C4.6839 11.8197 4.82165 11.8602 4.90273 11.9413C5.00006 12.0224 5.0406 12.1683 5.0406 12.3709V14.284L5.03242 14.292H5.0406V14.284L7.17245 12.1844C7.31825 12.0304 7.44794 11.9413 7.57774 11.8927C7.69924 11.844 7.86141 11.8197 8.06399 11.8197H11.6279L2.81323 3.02605ZM4.23927 2.92765L13.0377 11.7154C13.2964 11.6366 13.509 11.5139 13.6733 11.3495C13.9732 11.0253 14.1273 10.5633 14.1273 9.93914V4.80001C14.1273 4.18395 13.9732 3.71381 13.6733 3.39778C13.3653 3.08163 12.887 2.92765 12.2548 2.92765H4.23927Z" fill="white"/>
<path d="M6.11356 7.4856L5.20192 9.94166C5.15296 10.0956 5.12854 10.2039 5.12854 10.3092C5.12854 10.6097 5.33907 10.8095 5.65642 10.8095C5.91723 10.8095 6.09877 10.6828 6.21317 10.3489L6.73516 8.82202H7.45323L6.11356 7.4856ZM7.1437 4.71038L7.21732 4.51213C7.36216 4.14148 7.62598 3.95081 8.01191 3.95081C8.40541 3.95081 8.68451 4.14148 8.82165 4.51213L9.92601 7.48945L8.29401 5.85938L8.05919 5.17619H7.97834L7.88427 5.44999L7.1437 4.71038Z" fill="white"/>
</g>
<defs>
<clipPath id="clip0_1_52">
<rect width="16" height="16" fill="white"/>
</clipPath>
</defs>
</svg>
