<svg width="29" height="28" viewBox="0 0 29 28" fill="none" xmlns="http://www.w3.org/2000/svg">
<g clip-path="url(#clip0_1_43)">
<mask id="mask0_1_43" style="mask-type:luminance" maskUnits="userSpaceOnUse" x="0" y="0" width="29" height="28">
<path d="M28.5 0H0.5V28H28.5V0Z" fill="black"/>
<g clip-path="url(#clip1_1_43)">
<path d="M9.86969 24.5614C10.4761 24.5614 10.9405 24.2829 11.6768 23.6308L15.051 20.6615H20.7642C23.7617 20.6615 25.5 18.8905 25.5 15.9257V8.17447C25.5 5.20963 23.762 3.43863 20.7642 3.43863H8.23584C5.23834 3.43863 3.5 5.20688 3.5 8.17447V15.9257C3.5 18.8933 5.31156 20.6615 8.1255 20.6615H8.47475V22.9966C8.47475 23.9633 8.99416 24.5614 9.86934 24.5614H9.86969ZM10.4094 22.1001V19.3123C10.4094 18.6901 10.1327 18.4581 9.55481 18.4581H8.3345C6.55903 18.4581 5.70344 17.5633 5.70344 15.827V8.27313C5.70344 6.54304 6.55903 5.64963 8.3345 5.64963H20.6655C22.4355 5.64963 23.2966 6.54304 23.2966 8.27313V15.827C23.2966 17.5633 22.4355 18.4581 20.6655 18.4581H14.9084C14.2776 18.4581 13.9796 18.5715 13.5293 19.0253L10.4094 22.1001ZM9.649 11.0393C9.649 12.2073 10.3901 13.0798 11.5011 13.0798C11.969 13.0798 12.3921 12.976 12.6603 12.6456H12.7926C12.4942 13.4125 11.7613 13.9673 10.9697 14.1581C10.6431 14.2417 10.5135 14.4115 10.5135 14.648C10.5135 14.923 10.7397 15.1155 11.0326 15.1155C12.1237 15.1155 14.0576 13.8178 14.0576 11.4717C14.0576 10.0493 13.1632 8.94997 11.793 8.94997C10.5637 8.94997 9.649 9.81554 9.649 11.0393ZM15.0332 11.0393C15.0332 12.2073 15.7667 13.0798 16.8849 13.0798C17.3456 13.0798 17.7763 12.976 18.0444 12.6456H18.1785C17.8811 13.4125 17.1393 13.9673 16.3538 14.1581C16.0283 14.2417 15.8977 14.4115 15.8977 14.648C15.8977 14.923 16.1163 15.1155 16.4168 15.1155C17.5092 15.1155 19.4345 13.8178 19.4345 11.4717C19.4345 10.0493 18.5487 8.94997 17.1771 8.94997C15.9475 8.94997 15.0332 9.81554 15.0332 11.0393Z" fill="white"/>
</g>
</mask>
<g mask="url(#mask0_1_43)">
<path d="M28.5 0H0.5V28H28.5V0Z" fill="white"/>
</g>
</g>
<defs>
<clipPath id="clip0_1_43">
<rect width="28" height="28" fill="white" transform="translate(0.5)"/>
</clipPath>
<clipPath id="clip1_1_43">
<rect width="22" height="22" fill="white" transform="translate(3.5 3)"/>
</clipPath>
</defs>
</svg>
