<svg width="16" height="16" viewBox="0 0 16 16" fill="none" xmlns="http://www.w3.org/2000/svg">
<g clip-path="url(#clip0_1_14)">
<path d="M4.4721 15.4039C4.82744 15.4039 5.0715 15.2177 5.49838 14.832L7.98429 12.6262H12.5977C14.7358 12.6262 15.8894 11.439 15.8894 9.33452V3.82762C15.8894 1.7231 14.7358 0.535934 12.5977 0.535934H3.34308C1.205 0.535934 0.0513916 1.72001 0.0513916 3.82762V9.33452C0.0513916 11.4421 1.205 12.6262 3.34308 12.6262H3.68208V14.4933C3.68208 15.05 3.96735 15.4039 4.4721 15.4039ZM4.76635 14.0907V12.0102C4.76635 11.6167 4.61989 11.4702 4.22643 11.4702H3.34617C1.88977 11.4702 1.20735 10.7329 1.20735 9.33143V3.83071C1.20735 2.43526 1.88977 1.69955 3.34617 1.69955H12.5946C14.0447 1.69955 14.7333 2.43526 14.7333 3.83071V9.33143C14.7333 10.7329 14.0447 11.4702 12.5946 11.4702H7.93734C7.54211 11.4702 7.33617 11.5297 7.06444 11.812L4.76635 14.0907Z" fill="white"/>
<path d="M5.60348 9.96734C5.86432 9.96734 6.04582 9.84075 6.16019 9.50675L6.68216 7.97985H9.25095L9.77896 9.50675C9.88582 9.83928 10.0688 9.96734 10.3313 9.96734C10.653 9.96734 10.8635 9.76597 10.8635 9.46863C10.8635 9.36176 10.8391 9.25357 10.7827 9.0996L8.76872 3.66998C8.63153 3.29933 8.35244 3.1087 7.95898 3.1087C7.57302 3.1087 7.30924 3.29933 7.16439 3.66998L5.14893 9.0996C5.10006 9.25357 5.07562 9.36176 5.07562 9.46701C5.07562 9.76759 5.28612 9.96734 5.60348 9.96734ZM6.97053 7.11181L7.92542 4.334H8.00623L8.96097 7.11181H6.97053Z" fill="white"/>
</g>
<defs>
<clipPath id="clip0_1_14">
<rect width="16" height="16" fill="white"/>
</clipPath>
</defs>
</svg>
