<svg width="16" height="15" viewBox="0 0 16 15" fill="none" xmlns="http://www.w3.org/2000/svg">
<path d="M4.42071 14.8679C4.77605 14.8679 5.02011 14.6817 5.44699 14.2961L7.9329 12.0903H12.5463C14.6844 12.0903 15.838 10.9031 15.838 8.79859V3.29169C15.838 1.18717 14.6844 0 12.5463 0H3.29169C1.15361 0 0 1.18408 0 3.29169V8.79859C0 10.9062 1.15361 12.0903 3.29169 12.0903H3.63069V13.9574C3.63069 14.5141 3.91596 14.8679 4.42071 14.8679ZM4.71496 13.5548V11.4742C4.71496 11.0808 4.5685 10.9343 4.17503 10.9343H3.29478C1.83838 10.9343 1.15596 10.197 1.15596 8.79549V3.29478C1.15596 1.89932 1.83838 1.16362 3.29478 1.16362H12.5432C13.9933 1.16362 14.6819 1.89932 14.6819 3.29478V8.79549C14.6819 10.197 13.9933 10.9343 12.5432 10.9343H7.88595C7.49071 10.9343 7.28478 10.9938 7.01305 11.2761L4.71496 13.5548Z" fill="white"/>
<path d="M3 4.74C3 4.33 3.32 4 3.7 4H8.09C8.48 4 8.79 4.33 8.79 4.73C8.79 5.13 8.48 5.47 8.09 5.47H3.71C3.61544 5.46741 3.52231 5.44621 3.43595 5.40761C3.34958 5.36902 3.27167 5.31378 3.20666 5.24505C3.14165 5.17633 3.09082 5.09547 3.05708 5.0071C3.02333 4.91872 3.00734 4.82456 3.01 4.73L3 4.74ZM3.7 6.2C3.32 6.2 3 6.54 3 6.94C3 7.34 3.32 7.68 3.7 7.68H5.2C5.58 7.68 5.9 7.35 5.9 6.94C5.9 6.54 5.58 6.2 5.2 6.2H3.7ZM10.24 4.73C10.24 4.33 10.56 4 10.94 4H12.44C12.82 4 13.14 4.33 13.14 4.73C13.14 5.13 12.82 5.47 12.44 5.47H10.94C10.8454 5.46741 10.7523 5.44621 10.6659 5.40761C10.5796 5.36902 10.5017 5.31378 10.4367 5.24505C10.3716 5.17633 10.3208 5.09547 10.2871 5.0071C10.2533 4.91872 10.2373 4.82456 10.24 4.73ZM8.05 6.21C7.66 6.21 7.35 6.55 7.35 6.95C7.35 7.35 7.66 7.69 8.05 7.69H10.26C10.65 7.69 10.96 7.36 10.96 6.95C10.96 6.55 10.65 6.21 10.26 6.21H8.07H8.05Z" fill="white"/>
</svg>
