<svg width="16" height="12" viewBox="0 0 16 12" fill="none" xmlns="http://www.w3.org/2000/svg">
<g clip-path="url(#clip0_1_38)">
<path d="M0.248474 2.39555C0.248474 1.10679 1.0696 0.358383 2.30584 0.358383H7.09324C8.32948 0.358383 9.15364 1.10679 9.15364 2.39555V2.84702H8.91831C8.71833 2.84702 8.53148 2.8652 8.35776 2.89954V2.42484C8.35776 1.55422 7.87094 1.0977 7.04476 1.0977H2.35331C1.53218 1.09669 1.04031 1.55422 1.04031 2.42484V5.28718C1.04031 6.1578 1.53319 6.60422 2.3523 6.60422H2.87346C3.08253 6.60422 3.25322 6.72946 3.25322 7.00822V8.25254L4.83993 6.83551C5.03385 6.66381 5.15303 6.60321 5.42169 6.60321H6.85993V7.34758H5.39038L3.74408 8.7535C3.44916 9.01206 3.28655 9.14437 3.04718 9.14437C2.70277 9.14437 2.51491 8.90399 2.51491 8.5313V7.34758H2.30584C1.0696 7.34758 0.248474 6.60119 0.248474 5.30738V2.39555Z" fill="white"/>
<path d="M2.97243 5.32052C2.86739 5.59625 3.02091 5.84673 3.30573 5.84673C3.49258 5.84673 3.60873 5.74775 3.68044 5.53868L3.9794 4.67008H5.43077L5.73478 5.53868C5.80144 5.74775 5.91658 5.84673 6.10646 5.84673C6.39633 5.84673 6.54076 5.59423 6.4438 5.32153L5.2217 2.0562C5.13282 1.8138 4.95304 1.68149 4.70054 1.68149C4.45107 1.68149 4.27129 1.81279 4.18241 2.05519L2.97243 5.32153V5.32052ZM4.1814 4.06307L4.70054 2.55312L5.22574 4.06307H4.18241H4.1814ZM12.2654 11.2432L10.6181 9.83623H8.9183C7.62853 9.83623 6.85992 9.09085 6.85992 7.8031V4.8842C6.85992 3.59443 7.62752 2.84703 8.9183 2.84703H13.7037C14.9399 2.84703 15.7611 3.59443 15.7611 4.88319V7.79502C15.7611 9.08883 14.9399 9.83522 13.7037 9.83522H13.4997V11.0189C13.4997 11.3916 13.3057 11.632 12.9684 11.632C12.727 11.632 12.5664 11.5007 12.2644 11.2432H12.2654ZM11.5685 4.56908L11.3241 4.07216C11.2302 3.88531 11.0413 3.80148 10.8615 3.90046C10.8204 3.91982 10.7835 3.9473 10.7532 3.98123C10.7229 4.01517 10.6997 4.05487 10.6851 4.09796C10.6705 4.14105 10.6647 4.18664 10.6681 4.23202C10.6716 4.27739 10.6841 4.32161 10.705 4.36203L10.9444 4.864C10.9628 4.90485 10.9891 4.94163 11.0218 4.97222C11.0546 5.00281 11.0931 5.02659 11.1351 5.04219C11.1771 5.05779 11.2217 5.06489 11.2665 5.06308C11.3113 5.06127 11.3552 5.05059 11.3958 5.03166C11.5817 4.94076 11.6514 4.74179 11.5675 4.56908H11.5685ZM9.38391 5.53565C9.38391 5.72452 9.53541 5.8639 9.73337 5.8639H10.1111C10.2475 6.35887 10.4983 6.81485 10.8434 7.19508C10.482 7.42729 10.0822 7.59349 9.66267 7.68594C9.4738 7.73139 9.35967 7.91319 9.39805 8.11216C9.4536 8.30709 9.65055 8.39496 9.86265 8.33739C10.401 8.21962 10.9083 7.98935 11.3514 7.6617C11.7759 7.98278 12.2621 8.21281 12.7795 8.33739C13.024 8.38991 13.2249 8.31719 13.2744 8.11216C13.335 7.89804 13.2371 7.73139 13.0219 7.68594C12.6032 7.59613 12.2046 7.42972 11.8463 7.19508C12.1958 6.81888 12.4458 6.36129 12.5735 5.8639H12.9512C13.1552 5.8639 13.3047 5.72452 13.3047 5.53565C13.3047 5.34678 13.1552 5.20639 12.9512 5.20639H9.73337C9.5344 5.20639 9.38391 5.34779 9.38391 5.53565ZM11.3514 6.77795C11.1079 6.51347 10.9204 6.20258 10.7999 5.8639H11.8847C11.7676 6.20016 11.5865 6.51055 11.3514 6.77795Z" fill="white"/>
</g>
<defs>
<clipPath id="clip0_1_38">
<rect width="16" height="12" fill="white"/>
</clipPath>
</defs>
</svg>
